<svg xmlns="http://www.w3.org/2000/svg" viewBox="0 0 800 1040" role="img" aria-label="Busto clásico estilizado sobre fondo verde oscuro">
  <defs>
    <linearGradient id="bg" x1="0" y1="0" x2="1" y2="1">
      <stop offset="0%" stop-color="#3a5547"/>
      <stop offset="52%" stop-color="#1f322b"/>
      <stop offset="100%" stop-color="#08110f"/>
    </linearGradient>
    <radialGradient id="halo" cx="42%" cy="28%" r="70%">
      <stop offset="0%" stop-color="#efe4d4" stop-opacity=".95"/>
      <stop offset="35%" stop-color="#d6c6b5" stop-opacity=".45"/>
      <stop offset="100%" stop-color="#d6c6b5" stop-opacity="0"/>
    </radialGradient>
    <linearGradient id="marble" x1="0" y1="0" x2="1" y2="1">
      <stop offset="0%" stop-color="#f5efe6"/>
      <stop offset="35%" stop-color="#ddd3c4"/>
      <stop offset="65%" stop-color="#b7a997"/>
      <stop offset="100%" stop-color="#8c7b68"/>
    </linearGradient>
    <linearGradient id="shadow" x1="0" y1="0" x2="0" y2="1">
      <stop offset="0%" stop-color="#000" stop-opacity=".1"/>
      <stop offset="100%" stop-color="#000" stop-opacity=".45"/>
    </linearGradient>
    <filter id="softShadow" x="-20%" y="-20%" width="140%" height="140%">
      <feDropShadow dx="0" dy="24" stdDeviation="18" flood-color="#000" flood-opacity=".32"/>
    </filter>
    <filter id="blurLarge" x="-30%" y="-30%" width="160%" height="160%">
      <feGaussianBlur stdDeviation="36"/>
    </filter>
  </defs>

  <rect width="800" height="1040" fill="url(#bg)"/>
  <circle cx="340" cy="260" r="420" fill="url(#halo)" filter="url(#blurLarge)"/>

  <g opacity=".18" filter="url(#blurLarge)">
    <ellipse cx="210" cy="770" rx="160" ry="120" fill="#000"/>
    <ellipse cx="610" cy="800" rx="180" ry="140" fill="#000"/>
  </g>

  <g filter="url(#softShadow)">
    <path d="M267 330c0-84 66-155 143-155s143 71 143 155c0 38-14 70-35 97-10 13-22 24-34 33v33c0 22 18 40 40 40h17c51 0 92 41 92 92v92c0 30-25 55-55 55H194c-30 0-55-25-55-55v-96c0-52 42-94 94-94h14c22 0 40-18 40-40v-33c-12-8-24-19-34-31-22-27-36-59-36-93z" fill="url(#marble)"/>
    <path d="M250 307c0-74 60-133 133-133s133 59 133 133c0 35-11 63-30 86-8 10-18 19-29 27 1 19 0 34-4 47-6 22-21 39-43 48-25 11-58 11-82 0-22-10-37-27-43-49-4-13-5-28-4-46-10-7-20-16-28-26-20-23-33-52-33-87z" fill="#efe7da"/>
    <path d="M292 182c20-19 48-31 81-31 36 0 67 14 89 36 10 10 18 22 23 35 3 8 4 16 3 24-25 7-48 8-69 4-27-5-48-17-70-29-25-13-50-25-87-18 6-10 17-17 30-21z" fill="#d7c9b9"/>
    <path d="M315 238c23 10 47 18 73 18 26 0 52-8 76-20-1 24-5 45-12 63-9 22-22 39-39 50-16 10-35 14-57 14s-40-4-56-13c-18-11-31-28-40-50-7-17-11-37-11-62 19 5 40 7 66 0z" fill="#f4ede3"/>
    <path d="M331 442c25 10 51 12 78 7 19-4 38-14 54-30 6 12 10 27 10 44 0 37-14 66-41 87-19 15-42 23-67 23-26 0-49-8-68-23-27-21-41-50-41-87 0-15 3-30 9-43 18 17 37 28 56 32z" fill="#dfd4c4"/>
    <path d="M289 503c0 18 2 33 8 47 15 33 47 54 99 54 47 0 80-18 97-52 7-14 10-30 10-49l29 18c39 24 63 66 63 111v72c0 22-18 40-40 40H189c-22 0-40-18-40-40v-74c0-45 23-86 60-110l80-50z" fill="url(#marble)"/>
    <path d="M247 500c0-14 11-25 25-25h256c14 0 25 11 25 25v31c0 20-13 38-31 47-28 14-73 27-126 27s-98-13-126-27c-18-9-31-27-31-47v-31z" fill="#cdbfae" opacity=".72"/>
    <ellipse cx="331" cy="358" rx="28" ry="18" fill="#f7f2ea"/>
    <ellipse cx="473" cy="358" rx="28" ry="18" fill="#f7f2ea"/>
    <ellipse cx="331" cy="358" rx="13" ry="10" fill="#4c382d" opacity=".85"/>
    <ellipse cx="473" cy="358" rx="13" ry="10" fill="#4c382d" opacity=".85"/>
    <path d="M346 417c10 7 22 10 36 10 16 0 29-4 40-12 2 14-2 27-12 37-9 10-21 15-35 15-15 0-27-5-36-15-10-11-13-23-12-35 5 0 11 0 19 0z" fill="#a18e7c" opacity=".55"/>
    <path d="M364 451c11 5 20 7 28 7 12 0 24-3 36-9-1 12-4 21-10 29-8 10-20 16-36 16-14 0-25-4-33-13-6-7-10-17-10-30 10 1 18 1 25 0z" fill="#fff" opacity=".28"/>
  </g>

  <g opacity=".9">
    <path d="M243 190c18-45 59-79 114-92 61-15 124 1 171 38 25 20 43 47 52 77-35-26-73-40-116-43-51-4-99 9-145 24-27 9-50 0-76-4z" fill="#2f4639" opacity=".45"/>
    <path d="M556 283c-11 24-26 45-47 62-14 12-29 21-45 27 3-23 2-45-2-64 31-11 62-19 94-25z" fill="#d7c9b9" opacity=".18"/>
  </g>

</svg>
